<svg
  width="196"
  height="196"
  viewBox="0 0 196 196"
  fill="none"
  xmlns="http://www.w3.org/2000/svg">
  <mask
    id="mask0"
    mask-type="alpha"
    maskUnits="userSpaceOnUse"
    x="13"
    y="0"
    width="170"
    height="196">
    <path d="M98 0L13.1295 49V147L98 196L182.87 147V49L98 0Z" fill="#C4C4C4" />
  </mask>
  <g mask="url(#mask0)">
    <rect
      opacity="0.5"
      width="377.481"
      height="566.222"
      transform="matrix(-1 0 0 1 294 -213.073)"
      fill="url(#paint0_linear)" />
    <path
      d="M129.894 2.70972H64.4171C56.4569 2.70972 50.0039 9.15712 50.0039
      17.1104V177.986C50.0039 185.94 56.4569 192.387 64.4171
      192.387H129.894C137.854 192.387 144.307 185.94 144.307
      177.986V17.1104C144.307 9.15712 137.854 2.70972 129.894 2.70972Z"
      fill="#393E41" />
    <path
      d="M129.894 2.70972H64.4171C56.4569 2.70972 50.0039 9.15712 50.0039
      17.1104V177.986C50.0039 185.94 56.4569 192.387 64.4171
      192.387H129.894C137.854 192.387 144.307 185.94 144.307
      177.986V17.1104C144.307 9.15712 137.854 2.70972 129.894 2.70972Z"
      fill="url(#paint1_linear)" />
    <mask
      id="mask1"
      mask-type="alpha"
      maskUnits="userSpaceOnUse"
      x="55"
      y="8"
      width="84"
      height="179">
      <path
        d="M121.626 8.51611C120.804 8.51611 120.393 8.92735 120.393
        9.74982C120.393 13.5004 117.937 15.0959 114.223 15.0959C108.149 15.0959
        84.5022 15.0959 80.0873 15.0959C76.1152 15.0959 73.9182 13.5004 73.9182
        9.74982C73.9182 8.92735 73.5069 8.51611 72.6843 8.51611H64.0475C59.5047
        8.51611 55.822 12.1984 55.822 16.7408V178.356C55.822 182.898 59.5047
        186.581 64.0475 186.581H130.263C134.806 186.581 138.489 182.898 138.489
        178.356V16.7408C138.489 12.1984 134.806 8.51611 130.263 8.51611H121.626Z"
        fill="white" />
    </mask>
    <g mask="url(#mask1)">
      <path
        d="M121.626 8.51611C120.804 8.51611 120.393 8.92735 120.393
        9.74982C120.393 13.5004 117.937 15.0959 114.223 15.0959C108.149 15.0959
        84.5022 15.0959 80.0873 15.0959C76.1152 15.0959 73.9182 13.5004 73.9182
        9.74982C73.9182 8.92735 73.5069 8.51611 72.6843 8.51611H64.0475C59.5047
        8.51611 55.822 12.1984 55.822 16.7408V178.356C55.822 182.898 59.5047
        186.581 64.0475 186.581H130.263C134.806 186.581 138.489 182.898 138.489
        178.356V16.7408C138.489 12.1984 134.806 8.51611 130.263 8.51611H121.626Z"
        fill="url(#paint2_linear)" />
    </g>
    <path
      d="M97.8828 47.2258H165.762C178.012 47.2258 187.944 57.1369 187.944
      69.3629C187.944 81.5889 178.012 91.5 165.762 91.5H97.8828C85.6321 91.5
      75.701 81.5889 75.701 69.3629C75.701 57.1369 85.6321 47.2258 97.8828
      47.2258Z"
      fill="#F0F0F6" />
    <path
      d="M97.8828 47.2258H165.762C178.012 47.2258 187.944 57.1369 187.944
      69.3629C187.944 81.5889 178.012 91.5 165.762 91.5H97.8828C85.6321 91.5
      75.701 81.5889 75.701 69.3629C75.701 57.1369 85.6321 47.2258 97.8828
      47.2258Z"
      fill="url(#paint3_linear)" />
    <path
      d="M113.883 78.4355H136.913C137.917 78.4355 138.731 79.2479 138.731
      80.2501C138.731 81.2522 137.917 82.0646 136.913 82.0646H113.883C112.879
      82.0646 112.065 81.2522 112.065 80.2501C112.065 79.2479 112.879 78.4355
      113.883 78.4355Z"
      fill="#DBDBE8" />
    <path
      d="M94.4889 71.1775H136.913C137.917 71.1775 138.731 71.9899 138.731
      72.992C138.731 73.9941 137.917 74.8065 136.913 74.8065H94.4889C93.4848
      74.8065 92.6707 73.9941 92.6707 72.992C92.6707 71.9899 93.4848 71.1775
      94.4889 71.1775Z"
      fill="#DBDBE8" />
    <path
      d="M94.4889 63.9194H136.913C137.917 63.9194 138.731 64.7318 138.731
      65.734C138.731 66.7361 137.917 67.5485 136.913 67.5485H94.4889C93.4848
      67.5485 92.6707 66.7361 92.6707 65.734C92.6707 64.7318 93.4848 63.9194
      94.4889 63.9194Z"
      fill="#DBDBE8" />
    <path
      d="M94.4889 56.6614H136.913C137.917 56.6614 138.731 57.4738 138.731
      58.4759C138.731 59.478 137.917 60.2904 136.913 60.2904H94.4889C93.4848
      60.2904 92.6707 59.478 92.6707 58.4759C92.6707 57.4738 93.4848 56.6614
      94.4889 56.6614Z"
      fill="#DBDBE8" />
    <mask
      id="mask2"
      mask-type="alpha"
      maskUnits="userSpaceOnUse"
      x="148"
      y="52"
      width="36"
      height="35">
      <path
        d="M165.762 86.6615C156.189 86.6615 148.428 78.9167 148.428
        69.3631C148.428 59.8094 156.189 52.0647 165.762 52.0647C175.335 52.0647
        183.095 59.8094 183.095 69.3631C183.095 78.9167 175.335 86.6615 165.762
        86.6615Z"
        fill="white" />
    </mask>
    <g mask="url(#mask2)">
      <path
        d="M165.762 86.6615C156.189 86.6615 148.428 78.9167 148.428
        69.3631C148.428 59.8094 156.189 52.0647 165.762 52.0647C175.335 52.0647
        183.095 59.8094 183.095 69.3631C183.095 78.9167 175.335 86.6615 165.762
        86.6615Z"
        fill="white" />
      <path
        d="M165.762 73.113C163.017 73.113 160.792 76.8377 160.792
        81.4323V86.326C160.792 90.9206 163.017 94.6453 165.762 94.6453C168.506
        94.6453 170.731 90.9206 170.731 86.326V81.4323C170.731 76.8377 168.506
        73.113 165.762 73.113Z"
        fill="#FFC62C" />
      <path
        d="M165.762 73.113C163.017 73.113 160.792 76.8377 160.792
        81.4323V86.326C160.792 90.9206 163.017 94.6453 165.762 94.6453C168.506
        94.6453 170.731 90.9206 170.731 86.326V81.4323C170.731 76.8377 168.506
        73.113 165.762 73.113Z"
        fill="url(#paint4_linear)" />
      <path
        fill-rule="evenodd"
        clip-rule="evenodd"
        d="M165.156 75.7744C162.746 75.7744 160.792 77.7241 160.792
        80.1293L160.792 84.5109C161.464 84.6514 162.148 84.726 162.839
        84.726C165.146 84.726 167.944 84.0935 170.732 82.9023L170.732
        80.1293C170.732 77.7241 168.778 75.7744 166.368 75.7744H165.156Z"
        fill="url(#paint5_linear)" />
    </g>
    <mask
      id="mask3"
      mask-type="alpha"
      maskUnits="userSpaceOnUse"
      x="140"
      y="36"
      width="55"
      height="48">
      <path
        d="M184.402 45.974C180.824 35.9462 165.975 33.0474 158.163
        40.7344C150.282 48.5512 146.6 43.5904 142.42 47.0656C138.212 50.6466
        142.406 57.1917 146.575 60.8194C150.704 64.5011 141.168 71.2509 143.732
        80.0311C146.264 88.7928 161.202 74.7234 176.821 81.2749C192.44 87.8263
        199.359 69.3318 189.868 62.7842C180.377 56.2366 187.842 56.1118 184.402
        45.974Z"
        fill="white" />
    </mask>
    <g mask="url(#mask3)">
      <path
        d="M184.402 45.974C180.824 35.9462 165.975 33.0474 158.163
        40.7344C150.282 48.5512 146.6 43.5904 142.42 47.0656C138.212 50.6466
        142.406 57.1917 146.575 60.8194C150.704 64.5011 141.168 71.2509 143.732
        80.0311C146.264 88.7928 161.202 74.7234 176.821 81.2749C192.44 87.8263
        199.359 69.3318 189.868 62.7842C180.377 56.2366 187.842 56.1118 184.402
        45.974Z"
        fill="#464D89" />
      <path
        d="M184.402 45.974C180.824 35.9462 165.975 33.0474 158.163
        40.7344C150.282 48.5512 146.6 43.5904 142.42 47.0656C138.212 50.6466
        142.406 57.1917 146.575 60.8194C150.704 64.5011 141.168 71.2509 143.732
        80.0311C146.264 88.7928 161.202 74.7234 176.821 81.2749C192.44 87.8263
        199.359 69.3318 189.868 62.7842C180.377 56.2366 187.842 56.1118 184.402
        45.974Z"
        fill="url(#paint6_linear)" />
      <path
        fill-rule="evenodd"
        clip-rule="evenodd"
        d="M160.325 89.2501C160.932 89.6525 161.459 90.1351 161.88
        90.7284C162.832 92.0293 164.078 92.3964 165.576 92.2032C169.189 91.5505
        174.291 87.1676 181.384 85.4291C188.645 77.2886 182.837 59.3521 178.717
        66.7139C175.517 72.3662 167.575 70.1821 154.883 60.1644C149.069 69.5625
        147.384 77.0799 149.854 82.6508C150.555 84.2532 151.171 85.5076 151.805
        86.5524C154.869 87.3459 158.11 87.7637 160.325 89.2501Z"
        fill="url(#paint7_linear)" />
    </g>
    <path
      d="M180.967 68.7679C182.979 65.3731 179.933 63.315 179.004 64.8443C178.541
      65.503 178.39 66.1296 178.35 66.8061C176.567 69.8338 169.814 63.377
      167.667 60.9207C165.324 58.3302 164.988 55.6018 163.306 60.9207C162.121
      64.4407 157.86 63.0481 154.585 60.2667C154.55 61.297 154.585 62.3978
      154.585 63.5364C154.585 64.5645 153.277 65.9241 153.277 70.7297C153.277
      75.4909 158.303 82.0647 163.96 82.0647C168.271 82.0647 174.871 79.1669
      177.914 74.2174C180.449 74.2145 178.865 72.1528 180.967 68.7679Z"
      fill="#FFC62C" />
    <path
      d="M180.967 68.7679C182.979 65.3731 179.933 63.315 179.004 64.8443C178.541
      65.503 178.39 66.1296 178.35 66.8061C176.567 69.8338 169.814 63.377
      167.667 60.9207C165.324 58.3302 164.988 55.6018 163.306 60.9207C162.121
      64.4407 157.86 63.0481 154.585 60.2667C154.55 61.297 154.585 62.3978
      154.585 63.5364C154.585 64.5645 153.277 65.9241 153.277 70.7297C153.277
      75.4909 158.303 82.0647 163.96 82.0647C168.271 82.0647 174.871 79.1669
      177.914 74.2174C180.449 74.2145 178.865 72.1528 180.967 68.7679Z"
      fill="url(#paint8_linear)" />
    <path
      d="M179.095 72.8711C178.961 72.8711 178.853 72.9794 178.853 73.113C178.853
      73.2466 178.961 73.355 179.095 73.355C179.187 73.355 179.339 73.5382
      179.466 73.9016C179.615 74.3248 179.701 74.9077 179.701 75.5324C179.701
      76.1571 179.615 76.7399 179.466 77.1632C179.339 77.5265 179.187 77.7098
      179.095 77.7098C179.003 77.7098 178.851 77.5265 178.724 77.1632C178.576
      76.7399 178.489 76.1571 178.489 75.5324C178.489 75.343 178.497 75.1567
      178.512 74.9764C178.524 74.8433 178.425 74.7261 178.292 74.7147C178.158
      74.7033 178.041 74.802 178.029 74.9351C178.013 75.1293 178.004 75.3293
      178.004 75.5324C178.004 76.9983 178.423 78.1937 179.095 78.1937C179.767
      78.1937 180.186 76.9983 180.186 75.5324C180.186 74.0665 179.767 72.8711
      179.095 72.8711Z"
      fill="white" />
    <path
      fill-rule="evenodd"
      clip-rule="evenodd"
      d="M163.3 65.3221C164.999 59.9797 165.338 62.7305 167.703 65.3221C169.865
      67.8187 175.493 71.8648 178.489 66.855C176.673 69.9331 169.865 63.4234
      167.703 60.9424C165.338 58.3352 164.999 55.5844 163.3 60.9424C162.109
      64.4958 157.813 63.0917 154.495 60.2855C154.475 61.3263 154.511 62.4361
      154.495 63.5702C154.511 64.6206 162.109 68.8911 163.3 65.3221Z"
      fill="url(#paint9_linear)" />
    <path
      d="M30.6782 120.048H98.5572C110.808 120.048 120.739 129.959 120.739
      142.185C120.739 154.411 110.808 164.323 98.5572 164.323H30.6782C18.4275
      164.323 8.49637 154.411 8.49637 142.185C8.49637 129.959 18.4275 120.048
      30.6782 120.048Z"
      fill="#F0F0F6" />
    <path
      d="M30.6782 120.048H98.5572C110.808 120.048 120.739 129.959 120.739
      142.185C120.739 154.411 110.808 164.323 98.5572 164.323H30.6782C18.4275
      164.323 8.49637 154.411 8.49637 142.185C8.49637 129.959 18.4275 120.048
      30.6782 120.048Z"
      fill="url(#paint10_linear)" />
    <mask
      id="mask4"
      mask-type="alpha"
      maskUnits="userSpaceOnUse"
      x="15"
      y="124"
      width="36"
      height="36">
      <path
        d="M33.1027 159.484C23.5297 159.484 15.7693 151.739 15.7693
        142.186C15.7693 132.632 23.5297 124.887 33.1027 124.887C42.6756 124.887
        50.436 132.632 50.436 142.186C50.436 151.739 42.6756 159.484 33.1027
        159.484Z"
        fill="white" />
    </mask>
    <g mask="url(#mask4)">
      <path
        d="M33.1027 159.484C23.5297 159.484 15.7693 151.739 15.7693
        142.186C15.7693 132.632 23.5297 124.887 33.1027 124.887C42.6756 124.887
        50.436 132.632 50.436 142.186C50.436 151.739 42.6756 159.484 33.1027
        159.484Z"
        fill="white" />
      <path
        d="M33.622 142.584H19.5381L20.4183 159.714C20.5035 163.65 23.7667
        166.742 27.6803 166.742C31.4707 166.742 34.5022 163.736 34.5022
        159.934C34.5022 159.925 34.4999 159.823 34.5022 159.714L33.622 142.584Z"
        fill="#FFC62C" />
      <path
        d="M33.622 142.584H19.5381L20.4183 159.714C20.5035 163.65 23.7667
        166.742 27.6803 166.742C31.4707 166.742 34.5022 163.736 34.5022
        159.934C34.5022 159.925 34.4999 159.823 34.5022 159.714L33.622 142.584Z"
        fill="url(#paint11_linear)" />
      <path
        fill-rule="evenodd"
        clip-rule="evenodd"
        d="M19.9783 151.149C22.8775 155.202 27.9425 157.958 31.2014
        157.958C32.0261 157.958 33.1226 157.718 34.2822 157.299L33.622
        142.584H19.5381L19.9783 151.149Z"
        fill="url(#paint12_linear)" />
    </g>
    <path
      d="M81.345 144H101.951C102.955 144 103.769 144.812 103.769 145.814C103.769
      146.817 102.955 147.629 101.951 147.629H81.345C80.3409 147.629 79.5268
      146.817 79.5268 145.814C79.5268 144.812 80.3409 144 81.345 144Z"
      fill="#DBDBE8" />
    <path
      d="M59.5268 136.742H101.951C102.955 136.742 103.769 137.554 103.769
      138.557C103.769 139.559 102.955 140.371 101.951 140.371H59.5268C58.5226
      140.371 57.7086 139.559 57.7086 138.557C57.7086 137.554 58.5226 136.742
      59.5268 136.742Z"
      fill="#DBDBE8" />
    <path
      d="M59.5268 129.484H101.951C102.955 129.484 103.769 130.296 103.769
      131.298C103.769 132.301 102.955 133.113 101.951 133.113H59.5268C58.5226
      133.113 57.7086 132.301 57.7086 131.298C57.7086 130.296 58.5226 129.484
      59.5268 129.484Z"
      fill="#DBDBE8" />
    <path
      d="M19.7579 134.505C17.7834 135.178 16.4208 137.032 16.457 139.07C16.498
      141.45 17.9616 143.334 19.9055 143.927C21.0794 150.597 28.9762 155.761
      33.2917 155.761C37.9617 155.761 46.8254 149.714 46.8254 142.255C46.3853
      138.809 46.1653 136.956 46.1653 136.695C46.1653 136.434 46.3853 134.481
      46.8254 130.835C46.8254 123.375 40.7662 117.328 33.2917 117.328C25.8172
      117.328 19.7579 123.375 19.7579 130.835V134.505Z"
      fill="#FFC62C" />
    <path
      d="M19.7579 134.505C17.7834 135.178 16.4208 137.032 16.457 139.07C16.498
      141.45 17.9616 143.334 19.9055 143.927C21.0794 150.597 28.9762 155.761
      33.2917 155.761C37.9617 155.761 46.8254 149.714 46.8254 142.255C46.3853
      138.809 46.1653 136.956 46.1653 136.695C46.1653 136.434 46.3853 134.481
      46.8254 130.835C46.8254 123.375 40.7662 117.328 33.2917 117.328C25.8172
      117.328 19.7579 123.375 19.7579 130.835V134.505Z"
      fill="url(#paint13_linear)" />
    <path
      d="M19.7975 147.633L19.538 142.584L19.7581 138.822C21.9893 137.585 23.4991
      135.209 23.4991 132.482C23.4991 131.873 23.424 131.282 23.2825
      130.717C23.3907 130.722 23.4997 130.725 23.6092 130.725C27.2923 130.725
      30.3251 127.946 30.7181 124.375C31.8245 124.925 33.0721 125.234 34.3921
      125.234C36.3542 125.234 38.1563 124.551 39.5726 123.41C40.1953 123.734
      40.9033 123.917 41.6542 123.917C42.6604 123.917 43.5898 123.588 44.3402
      123.032C45.4487 124.593 46.2336 126.398 46.5973 128.351C48.3527 126.861
      49.4663 124.64 49.4663 122.16C49.4663 117.936 46.2369 114.465 42.1078
      114.071C40.9249 110.968 37.9165 108.763 34.3921 108.763C32.9202 108.763
      31.5382 109.148 30.3416 109.822C28.5635 108.209 26.2014 107.226 23.6092
      107.226C18.2916 107.226 13.9423 111.363 13.616 116.587C9.72377 117.301
      6.77452 120.704 6.77452 124.795C6.77452 127.089 7.70177 129.167 9.20259
      130.675C9.05409 131.253 8.97513 131.858 8.97513 132.482C8.97513 134.888
      10.1499 137.02 11.9581 138.338C11.8778 138.79 11.8359 139.254 11.8359
      139.729C11.8359 144.035 15.4997 147.537 19.7975 147.633Z"
      fill="#1F1845" />
    <path
      d="M19.7975 147.633L19.538 142.584L19.7581 138.822C21.9893 137.585 23.4991
      135.209 23.4991 132.482C23.4991 131.873 23.424 131.282 23.2825
      130.717C23.3907 130.722 23.4997 130.725 23.6092 130.725C27.2923 130.725
      30.3251 127.946 30.7181 124.375C31.8245 124.925 33.0721 125.234 34.3921
      125.234C36.3542 125.234 38.1563 124.551 39.5726 123.41C40.1953 123.734
      40.9033 123.917 41.6542 123.917C42.6604 123.917 43.5898 123.588 44.3402
      123.032C45.4487 124.593 46.2336 126.398 46.5973 128.351C48.3527 126.861
      49.4663 124.64 49.4663 122.16C49.4663 117.936 46.2369 114.465 42.1078
      114.071C40.9249 110.968 37.9165 108.763 34.3921 108.763C32.9202 108.763
      31.5382 109.148 30.3416 109.822C28.5635 108.209 26.2014 107.226 23.6092
      107.226C18.2916 107.226 13.9423 111.363 13.616 116.587C9.72377 117.301
      6.77452 120.704 6.77452 124.795C6.77452 127.089 7.70177 129.167 9.20259
      130.675C9.05409 131.253 8.97513 131.858 8.97513 132.482C8.97513 134.888
      10.1499 137.02 11.9581 138.338C11.8778 138.79 11.8359 139.254 11.8359
      139.729C11.8359 144.035 15.4997 147.537 19.7975 147.633Z"
      fill="url(#paint14_linear)" />
    <path
      fill-rule="evenodd"
      clip-rule="evenodd"
      d="M22.9805 135.113C23.1847 135.116 23.5253 135.117 23.609 135.117C27.2921
      135.117 30.325 132.339 30.7179 128.767C31.8244 129.317 33.072 129.627
      34.392 129.627C36.354 129.627 38.1562 128.943 39.5724 127.802C40.1952
      128.126 40.9032 128.309 41.654 128.309C42.6603 128.309 43.5896 127.98
      44.34 127.424C45.4483 128.984 46.2331 130.789 46.5969 132.742C46.665
      132.168 46.7412 131.532 46.8254 130.835C46.8254 127.928 45.9054 125.236
      44.34 123.032C43.5896 123.588 42.6603 123.917 41.654 123.917C40.9032
      123.917 40.1952 123.734 39.5724 123.41C38.1562 124.551 36.354 125.234
      34.392 125.234C33.072 125.234 31.8244 124.925 30.7179 124.375C30.325
      127.946 27.2921 130.725 23.609 130.725C23.4995 130.725 23.3906 130.722
      23.2823 130.717C23.4238 131.282 23.3303 131.899 23.2823 132.507C23.0656
      135.253 22.9176 135.112 22.9805 135.113Z"
      fill="url(#paint15_linear)" />
  </g>
  <defs>
    <linearGradient
      id="paint0_linear"
      x1="188.741"
      y1="0"
      x2="188.741"
      y2="566.222"
      gradientUnits="userSpaceOnUse">
      <stop stop-color="#3C48EA" />
      <stop offset="1" stop-color="white" stop-opacity="0" />
    </linearGradient>
    <linearGradient
      id="paint1_linear"
      x1="97.1555"
      y1="2.70972"
      x2="97.1555"
      y2="192.387"
      gradientUnits="userSpaceOnUse">
      <stop stop-color="#393E41" stop-opacity="0" />
      <stop offset="1" stop-opacity="0.3" />
    </linearGradient>
    <linearGradient
      id="paint2_linear"
      x1="97.1554"
      y1="8.51611"
      x2="97.1554"
      y2="186.581"
      gradientUnits="userSpaceOnUse">
      <stop stop-color="white" />
      <stop offset="1" stop-color="#3C48EA" />
    </linearGradient>
    <linearGradient
      id="paint3_linear"
      x1="131.822"
      y1="47.2258"
      x2="131.822"
      y2="91.5"
      gradientUnits="userSpaceOnUse">
      <stop stop-color="#F0F0F6" stop-opacity="0" />
      <stop offset="1" stop-opacity="0.03" />
    </linearGradient>
    <linearGradient
      id="paint4_linear"
      x1="165.762"
      y1="73.113"
      x2="165.762"
      y2="94.6453"
      gradientUnits="userSpaceOnUse">
      <stop stop-color="#FFC62C" stop-opacity="0" />
      <stop offset="1" stop-color="#FF6663" stop-opacity="0.1" />
    </linearGradient>
    <linearGradient
      id="paint5_linear"
      x1="160.792"
      y1="76.6051"
      x2="169.845"
      y2="85.1663"
      gradientUnits="userSpaceOnUse">
      <stop stop-opacity="0.35" />
      <stop offset="1" stop-color="#FFC62C" stop-opacity="0" />
    </linearGradient>
    <linearGradient
      id="paint6_linear"
      x1="167.433"
      y1="36.3657"
      x2="167.433"
      y2="83.0007"
      gradientUnits="userSpaceOnUse">
      <stop stop-color="#403F9F" stop-opacity="0" />
      <stop offset="1" stop-opacity="0.2" />
    </linearGradient>
    <linearGradient
      id="paint7_linear"
      x1="184.838"
      y1="63.4719"
      x2="152.103"
      y2="92.6972"
      gradientUnits="userSpaceOnUse">
      <stop stop-opacity="0.3" />
      <stop offset="1" stop-color="#1F1845" stop-opacity="0" />
    </linearGradient>
    <linearGradient
      id="paint8_linear"
      x1="167.459"
      y1="57.8711"
      x2="167.459"
      y2="82.0647"
      gradientUnits="userSpaceOnUse">
      <stop stop-color="#FFC62C" stop-opacity="0" />
      <stop offset="1" stop-color="#FF6663" stop-opacity="0.1" />
    </linearGradient>
    <linearGradient
      id="paint9_linear"
      x1="154.489"
      y1="62.2752"
      x2="175.054"
      y2="72.0582"
      gradientUnits="userSpaceOnUse">
      <stop stop-opacity="0.2" />
      <stop offset="1" stop-color="#FFC62C" stop-opacity="0" />
    </linearGradient>
    <linearGradient
      id="paint10_linear"
      x1="64.6177"
      y1="120.048"
      x2="64.6177"
      y2="164.323"
      gradientUnits="userSpaceOnUse">
      <stop stop-color="#F0F0F6" stop-opacity="0" />
      <stop offset="1" stop-opacity="0.03" />
    </linearGradient>
    <linearGradient
      id="paint11_linear"
      x1="27.0201"
      y1="142.584"
      x2="27.0201"
      y2="166.742"
      gradientUnits="userSpaceOnUse">
      <stop stop-color="#FFC62C" stop-opacity="0" />
      <stop offset="1" stop-color="#FF6663" stop-opacity="0.1" />
    </linearGradient>
    <linearGradient
      id="paint12_linear"
      x1="33.6639"
      y1="155.507"
      x2="19.6427"
      y2="143.168"
      gradientUnits="userSpaceOnUse">
      <stop stop-opacity="0.1" />
      <stop offset="1" stop-color="#FF6663" stop-opacity="0" />
    </linearGradient>
    <linearGradient
      id="paint13_linear"
      x1="31.6409"
      y1="117.328"
      x2="31.6409"
      y2="155.761"
      gradientUnits="userSpaceOnUse">
      <stop stop-color="#FFC62C" stop-opacity="0" />
      <stop offset="1" stop-color="#FF6663" stop-opacity="0.1" />
    </linearGradient>
    <linearGradient
      id="paint14_linear"
      x1="28.1204"
      y1="107.226"
      x2="28.1204"
      y2="147.633"
      gradientUnits="userSpaceOnUse">
      <stop stop-color="#1F1845" stop-opacity="0" />
      <stop offset="1" stop-opacity="0.2" />
    </linearGradient>
    <linearGradient
      id="paint15_linear"
      x1="31.5515"
      y1="128.233"
      x2="43.7314"
      y2="135.687"
      gradientUnits="userSpaceOnUse">
      <stop stop-opacity="0.1" />
      <stop offset="1" stop-color="#FF6663" stop-opacity="0" />
    </linearGradient>
  </defs>
</svg>
